<svg width="312" height="312" viewBox="0 0 312 312" fill="none" xmlns="http://www.w3.org/2000/svg">
<path d="M182.15 35.8567C176.769 34.7103 171.25 34.2216 165.799 33.4135C165.098 33.307 164.409 33.1378 163.707 33C158.582 33 153.458 33 148.327 33C143.904 33.6077 139.456 34.0901 135.065 34.8544C106.585 39.8098 82.7919 53.2475 63.6783 74.842C47.1582 93.5046 37.4479 115.356 34.0901 140.033C33.6515 143.271 33.3634 146.529 33 149.774C33 153.777 33 157.78 33 161.79C33.6202 166.77 33.9836 171.801 34.9107 176.725C42.6915 217.984 65.6266 247.961 102.902 266.918C119.722 275.469 137.777 279.366 156.678 279.015C214.345 277.95 259.169 240.149 273.872 190.952C294.27 122.673 251.807 50.7229 182.15 35.8567ZM155.776 259.538C144.7 259.695 133.912 257.903 123.412 254.407C103.353 247.729 86.9141 235.889 73.7895 219.156C84.853 205.893 105.727 198.827 125.298 206.232C141.273 212.283 158.476 228.108 155.776 259.538ZM90.1529 165.004C90.2594 154.798 98.8421 146.416 109.022 146.579C119.296 146.748 127.628 155.187 127.585 165.38C127.534 175.729 119.052 184.067 108.646 183.986C98.2407 183.898 90.0402 175.491 90.1529 165.004ZM243.695 211.388C227.525 235.977 205.204 251.569 176.33 257.627C176.023 257.69 175.71 257.703 174.852 257.803C174.852 253.631 175.059 249.558 174.814 245.511C174.05 233.07 169.921 221.774 162.585 211.701C161.633 210.398 161.533 209.489 162.354 208.117C171.557 192.8 185.17 184.687 202.918 184.55C220.678 184.412 234.398 192.337 243.776 207.56C244.647 208.963 244.616 209.978 243.695 211.388ZM184.481 146.554C184.412 136.299 192.976 127.71 203.262 127.729C213.518 127.754 221.875 136.117 221.906 146.385C221.937 156.816 213.605 165.179 203.193 165.167C192.944 165.154 184.556 156.809 184.481 146.554ZM254.201 189.023C247.93 181.668 240.569 175.867 231.717 171.594C239.967 161.646 242.987 150.444 240.074 137.915C238.013 129.032 233.339 121.702 226.06 116.164C211.594 105.157 191.19 106.159 177.677 118.401C165.724 129.232 158.57 152.343 174.645 171.676C163.118 177.295 154.059 185.433 147.168 196.07C143.892 194.153 140.734 192.299 137.376 190.332C145.426 180.703 148.515 169.671 145.815 157.311C143.854 148.327 139.193 140.878 131.92 135.202C117.605 124.032 96.5805 124.978 83.3244 137.176C70.5569 148.922 64.7621 171.857 79.9227 190.088C74.322 193.934 68.7026 197.799 63.1019 201.64C44.8904 167.566 47.9977 117.292 83.2242 82.0213C117.686 47.5153 172.903 42.2091 213.612 69.6172C254.871 97.3824 268.691 148.026 254.201 189.023Z" fill="#675ABE"/>
<mask id="path-2-inside-1_1133_43" fill="white">
<rect width="312" height="312" rx="10"/>
</mask>
<rect width="312" height="312" rx="10" stroke="#675ABE" stroke-width="42" mask="url(#path-2-inside-1_1133_43)"/>
</svg>

