<svg width="166" height="35" viewBox="0 0 166 35" fill="none" xmlns="http://www.w3.org/2000/svg">
<path d="M7.944 17H5.256V10.232L0.096 0.559999H3.096L6.576 7.616L10.08 0.559999H13.056L7.944 10.232V17ZM17.2208 13.52C17.7648 14.464 18.8048 14.936 20.3408 14.936C21.8768 14.936 22.9088 14.472 23.4368 13.544C23.9808 12.616 24.2528 11.064 24.2528 8.888C24.2528 6.696 23.9728 5.104 23.4128 4.112C22.8688 3.12 21.8448 2.624 20.3408 2.624C18.8368 2.624 17.8048 3.12 17.2448 4.112C16.6848 5.104 16.4048 6.688 16.4048 8.864C16.4048 11.024 16.6768 12.576 17.2208 13.52ZM25.5248 15.248C24.5488 16.592 22.8208 17.264 20.3408 17.264C17.8608 17.264 16.1248 16.592 15.1328 15.248C14.1408 13.888 13.6448 11.76 13.6448 8.864C13.6448 5.968 14.1408 3.816 15.1328 2.408C16.1408 0.999999 17.8768 0.295999 20.3408 0.295999C22.8048 0.295999 24.5328 0.999999 25.5248 2.408C26.5168 3.8 27.0128 5.952 27.0128 8.864C27.0128 11.776 26.5168 13.904 25.5248 15.248ZM32.6588 11.744C32.6588 13.872 33.7788 14.936 36.0188 14.936C38.2588 14.936 39.3788 13.872 39.3788 11.744V0.559999H42.0668V11.696C42.0668 13.632 41.5548 15.048 40.5308 15.944C39.5228 16.824 38.0108 17.264 35.9948 17.264C33.9948 17.264 32.4908 16.824 31.4828 15.944C30.4748 15.048 29.9708 13.632 29.9708 11.696V0.559999H32.6588V11.744ZM48.3881 11.144V17H45.7241V0.559999H51.9641C55.6761 0.559999 57.5321 2.304 57.5321 5.792C57.5321 8.128 56.6361 9.712 54.8441 10.544L57.5561 17H54.6281L52.2521 11.144H48.3881ZM54.7961 5.816C54.7961 3.848 53.8521 2.864 51.9641 2.864H48.3881V8.84H52.0121C52.9721 8.84 53.6761 8.568 54.1241 8.024C54.5721 7.464 54.7961 6.728 54.7961 5.816ZM65.8335 17V0.559999H70.4895L75.4815 14.648H75.8415V0.559999H78.5055V17H73.9455L68.8335 2.888H68.4975V17H65.8335ZM82.2866 17V0.559999H92.6546V2.888H84.9506V7.544H91.2146V9.848H84.9506V14.648H92.6546V17H82.2866ZM94.2323 0.559999H97.0403L99.3923 14.696H99.8963L103.016 0.607999H106.136L109.256 14.696H109.784L112.136 0.559999H114.944L111.704 17H107.408L104.576 3.824L101.768 17H97.4483L94.2323 0.559999ZM127.517 2.624C125.485 2.624 124.469 3.336 124.469 4.76C124.469 5.496 124.709 6.024 125.189 6.344C125.669 6.648 126.725 7.032 128.357 7.496C130.005 7.944 131.165 8.488 131.837 9.128C132.509 9.752 132.845 10.744 132.845 12.104C132.845 13.832 132.349 15.128 131.357 15.992C130.381 16.84 129.045 17.264 127.349 17.264C125.989 17.264 124.485 17.104 122.837 16.784L121.973 16.616L122.237 14.48C124.397 14.768 126.045 14.912 127.181 14.912C129.165 14.912 130.157 14.032 130.157 12.272C130.157 11.584 129.933 11.08 129.485 10.76C129.037 10.424 128.029 10.064 126.461 9.68C124.893 9.28 123.725 8.736 122.957 8.048C122.189 7.36 121.805 6.272 121.805 4.784C121.805 3.296 122.285 2.176 123.245 1.424C124.221 0.655999 125.565 0.271999 127.277 0.271999C128.509 0.271999 129.965 0.415999 131.645 0.704L132.485 0.847999L132.269 3.008C130.029 2.752 128.445 2.624 127.517 2.624ZM135.724 17V0.559999H138.388V17H135.724ZM140.585 2.936V0.559999H152.585V2.936H147.953V17H145.265V2.936H140.585ZM154.802 17V0.559999H165.17V2.888H157.466V7.544H163.73V9.848H157.466V14.648H165.17V17H154.802ZM1.218 34V24.27H2.842L5.852 32.782L8.848 24.27H10.472V34H9.604V25.166H9.408L6.356 33.678H5.334L2.282 25.166H2.086V34H1.218ZM12.8795 34L15.6795 24.27H17.7095L20.4955 34H19.6415L18.8575 31.312H14.5175L13.7475 34H12.8795ZM16.3095 25.026L14.7275 30.542H18.6475L17.0655 25.026H16.3095ZM23.768 34H22.9V24.27H23.768V28.862L25.448 28.82L28.15 24.27H29.144L26.204 29.156L29.326 34H28.29L25.462 29.604L23.768 29.632V34ZM31.6286 34V24.27H37.4666V25.054H32.4966V28.666H36.6266V29.436H32.4966V33.23H37.4666V34H31.6286ZM43.2414 34L46.0414 24.27H48.0714L50.8574 34H50.0034L49.2194 31.312H44.8794L44.1094 34H43.2414ZM46.6714 25.026L45.0894 30.542H49.0094L47.4274 25.026H46.6714ZM53.2619 34V24.27H59.0019V25.054H54.1299V29.072H58.2739V29.842H54.1299V34H53.2619ZM61.4574 34V24.27H67.1974V25.054H62.3254V29.072H66.4694V29.842H62.3254V34H61.4574ZM69.6528 34V24.27H70.5208V34H69.6528ZM79.1214 34H73.8014V24.27H74.6694V33.216H79.1214V34ZM81.368 34V24.27H82.236V34H81.368ZM84.6486 34L87.4486 24.27H89.4786L92.2646 34H91.4106L90.6266 31.312H86.2866L85.5166 34H84.6486ZM88.0786 25.026L86.4966 30.542H90.4166L88.8346 25.026H88.0786ZM92.9495 25.054V24.27H99.9495V25.054H96.8975V34H96.0295V25.054H92.9495ZM102.195 34V24.27H108.033V25.054H103.063V28.666H107.193V29.436H103.063V33.23H108.033V34H102.195ZM114.675 34V24.27H116.299L119.309 32.782L122.305 24.27H123.929V34H123.061V25.166H122.865L119.813 33.678H118.791L115.739 25.166H115.543V34H114.675ZM127.723 29.184C127.723 30.668 127.919 31.7367 128.311 32.39C128.703 33.034 129.473 33.356 130.621 33.356C131.778 33.356 132.553 33.0387 132.945 32.404C133.337 31.7693 133.533 30.71 133.533 29.226C133.533 27.7327 133.328 26.6407 132.917 25.95C132.506 25.2593 131.741 24.914 130.621 24.914C129.464 24.914 128.684 25.2873 128.283 26.034C128.068 26.4167 127.919 26.8553 127.835 27.35C127.76 27.8447 127.723 28.456 127.723 29.184ZM134.429 29.212C134.429 30.948 134.154 32.2033 133.603 32.978C133.062 33.7527 132.068 34.14 130.621 34.14C129.184 34.14 128.19 33.7433 127.639 32.95C127.098 32.1567 126.827 30.906 126.827 29.198C126.827 27.4807 127.102 26.2067 127.653 25.376C128.204 24.5453 129.193 24.13 130.621 24.13C132.049 24.13 133.038 24.5453 133.589 25.376C134.149 26.1973 134.429 27.476 134.429 29.212ZM137.314 34V24.27H139.022L143.096 33.23H143.418V24.27H144.272V34H142.592L138.49 25.054H138.182V34H137.314ZM147.561 34V24.27H153.399V25.054H148.429V28.666H152.559V29.436H148.429V33.23H153.399V34H147.561ZM159.079 34H158.211V29.884L155.089 24.27H156.055L158.645 28.988L161.221 24.27H162.201L159.079 29.884V34ZM164.444 34V32.6H165.368V34H164.444ZM164.5 30.878L164.458 24.27H165.34L165.284 30.878H164.5Z" fill="#675ABE"/>
<path d="M0 19.64H166.178V20.36H0V19.64Z" fill="#675ABE"/>
</svg>
